# xmcd
#
# Track frame offsets: 
#        150
#        21535
#        47098
#        65180
#        81465
#        101723
#        126950
#        143383
#
# Disc length: 2128 seconds
#
# Revision: 1
# Processed by: cddbd v1.5.2PL0 Copyright (c) Steve Scherf et al.
# Submitted via: ExactAudioCopy v1.0b3
#
DISCID=75084e08
DTITLE=Oscar D'Leon - Toitico Tuyo
DYEAR=1994
DGENRE=Salsa
TTITLE0=Mentiras
TTITLE1=Si Fueras Mi
TTITLE2=Como Olvidarte
TTITLE3=Toitico Tuyo
TTITLE4=Matematica Sexual
TTITLE5=Que Raro
TTITLE6=Casas De Carton
TTITLE7=De Ti
EXTD=YEAR: 1994
EXTT0=
EXTT1=
EXTT2=
EXTT3=
EXTT4=
EXTT5=
EXTT6=
EXTT7=
PLAYORDER=
